<svg width="16" height="24" viewBox="0 0 16 24" fill="none" xmlns="http://www.w3.org/2000/svg">
<path d="M1.098 7.986C1.602 7.938 2.16 7.902 2.772 7.878C3.384 7.854 4.032 7.842 4.716 7.842C5.448 7.842 6.144 7.908 6.804 8.04C7.464 8.16 8.046 8.37 8.55 8.67C9.054 8.97 9.45 9.384 9.738 9.912C10.038 10.428 10.188 11.088 10.188 11.892C10.188 12.792 9.984 13.566 9.576 14.214C9.18 14.85 8.61 15.336 7.866 15.672C7.122 15.996 6.24 16.158 5.22 16.158C4.968 16.158 4.716 16.152 4.464 16.14C4.212 16.128 3.978 16.116 3.762 16.104V21H1.098V7.986ZM4.788 14.016C5.616 14.016 6.276 13.836 6.768 13.476C7.26 13.116 7.506 12.594 7.506 11.91C7.506 11.25 7.296 10.764 6.876 10.452C6.468 10.128 5.874 9.966 5.094 9.966C4.878 9.966 4.65 9.972 4.41 9.984C4.182 9.984 3.966 10.002 3.762 10.038V13.962C3.87 13.962 4.014 13.974 4.194 13.998C4.386 14.01 4.584 14.016 4.788 14.016ZM10.4518 21.576C10.8478 21.576 11.1418 21.54 11.3338 21.468C11.5378 21.396 11.6758 21.234 11.7478 20.982C11.8198 20.73 11.8558 20.34 11.8558 19.812V7.896H14.5558V19.794C14.5558 20.682 14.4478 21.39 14.2318 21.918C14.0158 22.458 13.7218 22.854 13.3498 23.106C12.9898 23.37 12.5698 23.544 12.0898 23.628C11.6098 23.724 11.1058 23.772 10.5778 23.772L10.4518 21.576Z" fill="#050505"/>
</svg>
